<svg width="234" height="39" viewBox="0 0 234 39" fill="none" xmlns="http://www.w3.org/2000/svg">
<path d="M0.4 21.2V16.4L17.6 6.96V11.84L5.04 18.64V18.96L17.6 25.76V30.64L0.4 21.2ZM72.0731 36.52L85.2331 0.599998H89.8331L76.6731 36.52H72.0731ZM105.738 31.48C104.164 31.48 102.751 31.2267 101.498 30.72C100.244 30.2133 99.1775 29.4933 98.2975 28.56C97.4442 27.6267 96.7775 26.4933 96.2975 25.16C95.8442 23.8267 95.6175 22.3333 95.6175 20.68C95.6175 19.0267 95.8442 17.5333 96.2975 16.2C96.7775 14.8667 97.4442 13.7333 98.2975 12.8C99.1775 11.8667 100.231 11.1467 101.458 10.64C102.711 10.1333 104.124 9.88 105.698 9.88C107.884 9.88 109.644 10.3333 110.978 11.24C112.311 12.1467 113.324 13.3467 114.018 14.84L110.058 17C109.684 16.12 109.151 15.4133 108.458 14.88C107.791 14.32 106.871 14.04 105.698 14.04C104.178 14.04 103.004 14.48 102.178 15.36C101.378 16.24 100.978 17.44 100.978 18.96V22.4C100.978 23.8933 101.378 25.0933 102.178 26C103.004 26.88 104.204 27.32 105.778 27.32C107.004 27.32 107.978 27.04 108.698 26.48C109.444 25.92 110.044 25.1733 110.498 24.24L114.338 26.52C113.644 27.9867 112.591 29.1867 111.178 30.12C109.791 31.0267 107.978 31.48 105.738 31.48ZM119.802 26.96H126.362V5.44H119.802V1.4H131.482V26.96H138.082V31H119.802V26.96ZM154.186 7.16C152.986 7.16 152.133 6.90667 151.626 6.4C151.146 5.89333 150.906 5.28 150.906 4.56V3.6C150.906 2.88 151.146 2.26667 151.626 1.76C152.133 1.25333 152.986 0.999998 154.186 0.999998C155.386 0.999998 156.226 1.25333 156.706 1.76C157.213 2.26667 157.466 2.88 157.466 3.6V4.56C157.466 5.28 157.213 5.89333 156.706 6.4C156.226 6.90667 155.386 7.16 154.186 7.16ZM144.826 26.96H151.626V14.4H144.826V10.36H156.746V26.96H163.066V31H144.826V26.96ZM177.691 31.48C176.117 31.48 174.704 31.2267 173.451 30.72C172.197 30.2133 171.131 29.4933 170.251 28.56C169.397 27.6267 168.731 26.4933 168.251 25.16C167.797 23.8267 167.571 22.3333 167.571 20.68C167.571 19.0267 167.797 17.5333 168.251 16.2C168.731 14.8667 169.397 13.7333 170.251 12.8C171.131 11.8667 172.184 11.1467 173.411 10.64C174.664 10.1333 176.077 9.88 177.651 9.88C179.837 9.88 181.597 10.3333 182.931 11.24C184.264 12.1467 185.277 13.3467 185.971 14.84L182.011 17C181.637 16.12 181.104 15.4133 180.411 14.88C179.744 14.32 178.824 14.04 177.651 14.04C176.131 14.04 174.957 14.48 174.131 15.36C173.331 16.24 172.931 17.44 172.931 18.96V22.4C172.931 23.8933 173.331 25.0933 174.131 26C174.957 26.88 176.157 27.32 177.731 27.32C178.957 27.32 179.931 27.04 180.651 26.48C181.397 25.92 181.997 25.1733 182.451 24.24L186.291 26.52C185.597 27.9867 184.544 29.1867 183.131 30.12C181.744 31.0267 179.931 31.48 177.691 31.48ZM191.955 1.4H197.075V18.76H197.315L200.315 15.48L205.395 10.36H211.355L203.155 18.48L212.235 31H206.115L199.515 21.4L197.075 23.72V31H191.955V1.4ZM216.259 25.76L228.819 18.96V18.64L216.259 11.84V6.96L233.459 16.4V21.2L216.259 30.64V25.76Z" fill="white"/>
<path d="M23.9844 26.96H29.1044V14.4H23.9844V10.36H34.2244V16H34.5444C34.731 15.28 34.9844 14.5867 35.3044 13.92C35.651 13.2267 36.0777 12.6267 36.5844 12.12C37.1177 11.5867 37.7577 11.16 38.5044 10.84C39.251 10.52 40.1444 10.36 41.1844 10.36H43.4244V15.16H39.1844C37.6377 15.16 36.4244 15.6133 35.5444 16.52C34.6644 17.4267 34.2244 18.5867 34.2244 20V26.96H41.3844V31H23.9844V26.96ZM48.7688 34.96H57.2888V14.4H48.6088V10.36H62.4088V33.4C62.4088 35.0533 61.9421 36.4 61.0088 37.44C60.0754 38.48 58.6221 39 56.6488 39H48.7688V34.96ZM59.8888 7.16C58.6888 7.16 57.8354 6.90667 57.3288 6.4C56.8488 5.89333 56.6088 5.28 56.6088 4.56V3.6C56.6088 2.88 56.8488 2.26667 57.3288 1.76C57.8354 1.25333 58.6888 0.999998 59.8888 0.999998C61.0888 0.999998 61.9288 1.25333 62.4088 1.76C62.9154 2.26667 63.1688 2.88 63.1688 3.6V4.56C63.1688 5.28 62.9154 5.89333 62.4088 6.4C61.9288 6.90667 61.0888 7.16 59.8888 7.16Z" fill="#1400FF"/>
</svg>
